<defs>
<font horiz-adv-x="1363" ><font-face
    font-family="bevan"
    units-per-em="2048"
    panose-1="2 0 0 0 0 0 0 0 0 0"
    ascent="2365"
    descent="-925"
    alphabetic="0" />
<missing-glyph horiz-adv-x="456" />
<glyph unicode=" " glyph-name="space" horiz-adv-x="480" />
<glyph unicode="!" glyph-name="exclam" horiz-adv-x="802" d="M610 558L189 556L107 1331V1630H694V1331L610 558ZM399 463Q280 463 201 396T122 213Q122 100 199 34T399 -32Q526 -32 606 34T686 213Q686 328 604 395T399 463Z" />
<glyph unicode="&quot;" glyph-name="quotedbl" horiz-adv-x="1147" d="M44 1624H524L424 945H124L44 1624ZM631 1624H1111L1011 945H711L631 1624Z" />
<glyph unicode="#" glyph-name="numbersign" horiz-adv-x="1413" d="M409 1246L493 1623H817L730 1246H888L972 1623H1296L1209 1246H1349L1286 947H1141L1058 585H1202L1139 286H989L924 0H611L674 286H510L445 0H132L195 286H59L122 585H262L342 947H206L269
1246H409ZM579 585H741L821 947H662L579 585Z" />
<glyph unicode="$" glyph-name="dollar" horiz-adv-x="1358" d="M95 545H342Q349 460 430 379T585 298V586Q519 604 472 619T370 657T276 704T200 764T140 839T103 934T89 1053Q89 1260 226 1380T591 1513V1704H818V1494Q870 1476 962 1434L978 1450L1005 1477H1162Q1164
1477 1171 1475T1179 1473Q1180 1472 1181 1471T1184 1468T1185 1466V1040L1179 1034L1058 1030Q1057 1030 1033 1029T1001 1028Q990 1028 964 1030L954 1040Q931 1136 847 1214Q837 1225 827 1225Q816 1225 816 1219V991Q898 969 962 944T1090 880T1195 791T1265
673T1294 518Q1297 391 1233 282T1058 107T816 35V-166H585V48Q446 76 334 128L290 66H95V545ZM916 399Q921 441 896 480T816 527V307Q853 307 884 336T916 399ZM475 1180Q475 1136 506 1103T589 1059V1270Q546 1272 511 1245T475 1180Z" />
<glyph unicode="%" glyph-name="percent" horiz-adv-x="2728" d="M1675 521Q1675 679 1734 809T1907 1017T2169 1096Q2412 1096 2541 948T2670 555Q2670 442 2640 341T2553 159T2403 30T2193 -18Q1947 -18 1811 127T1675 521ZM2175 755Q2119 752 2095 693Q2079
651 2079 540Q2079 332 2172 332Q2194 332 2211 340T2238 363T2255 394T2264 434T2268 474T2269 513V540Q2270 566 2270 580T2267 624T2259 671T2242 710T2215 742T2175 755ZM938 0L1279 1623H1783L1441 0H938ZM56 1078Q56 1236 115 1366T288 1574T550 1653Q793
1653 922 1505T1051 1112Q1051 999 1021 898T934 716T784 587T574 539Q328 539 192 684T56 1078ZM556 1312Q499 1310 476 1250Q460 1208 460 1097Q460 889 553 889Q575 889 592 897T619 920T636 951T645 991T649 1031T650 1070L651 1096Q651 1123 651 1137T648
1181T640 1228T623 1267T596 1299T556 1312Z" />
<glyph unicode="&amp;" glyph-name="ampersand" horiz-adv-x="1728" d="M1117 0Q1068 49 944 183Q759 -21 483 -27Q289 -25 162 82T30 380Q33 534 110 638T344 809Q228 936 225 1111Q225 1207 263 1284T368 1412T521 1488T706 1515Q783 1515 858 1492T994 1427T1092
1317T1130 1169Q1130 1108 1122 1066T1091 985T1041 919T961 844L1140 669L1167 693Q1193 717 1220 748T1247 796Q1247 831 1220 831H1173V1126H1656V837Q1586 813 1549 787T1448 694L1278 518Q1283 516 1426 368H1656V0H1117ZM487 487Q487 421 531 378T641 335Q703
335 755 375L548 589L541 584Q535 580 526 571T509 549T494 521T487 487ZM678 1175Q678 1145 696 1116T733 1068T784 1025Q832 1058 854 1084T876 1152Q876 1203 850 1238T772 1273Q733 1273 706 1244T678 1175Z" />
<glyph unicode="&apos;" glyph-name="quotesingle" horiz-adv-x="559" d="M44 1624H524L424 945H124L44 1624Z" />
<glyph unicode="(" glyph-name="parenleft" horiz-adv-x="966" d="M912 1321Q835 1319 775 1299T677 1240T614 1157T576 1052T559 939T554 820Q554 742 562 675T594 540T656 423T758 345T906 314V-17Q733 -17 591 28T349 151T182 335T82 563T50 819Q50 1026 98
1178T248 1438T516 1599T912 1653V1321Z" />
<glyph unicode=")" glyph-name="parenright" horiz-adv-x="966" d="M54 1653Q284 1653 449 1600T717 1439T868 1179T916 819Q916 685 885 564T785 336T617 151T376 28T60 -17V314Q144 314 208 344T310 423T371 539T403 675T412 820Q412 886 408 938T391 1051T353
1156T289 1239T191 1298T54 1321V1653Z" />
<glyph unicode="*" glyph-name="asterisk" horiz-adv-x="1347" d="M98 1328Q133 1383 196 1396T337 1364Q370 1342 410 1304T473 1240T544 1156T603 1086Q598 1102 577 1173T547 1279T528 1367T518 1461Q518 1545 566 1593T679 1641T792 1593T840 1461Q840 1429
835 1392T819 1312T800 1238T776 1157T754 1086Q769 1103 814 1156T884 1238T948 1304T1021 1364Q1098 1409 1161 1396T1260 1328Q1283 1294 1286 1253T1268 1169T1199 1095Q1151 1063 1083 1037T919 983T795 945Q828 933 920 906T1082 853T1199 795Q1246 764 1268
721T1287 637T1260 562Q1225 507 1162 494T1021 526Q988 548 948 586T885 650T814 733T754 804Q758 791 780 717T811 610T830 524T840 429Q840 345 792 297T679 249T566 297T518 429Q518 469 528 522T547 611T576 715T603 804Q598 798 545 735T472 649T411 587T337
526Q260 481 197 494T98 562Q75 596 72 637T90 721T159 795Q207 826 276 852T437 906T562 945Q533 955 438 983T275 1037T159 1095Q112 1126 90 1169T71 1253T98 1328Z" />
<glyph unicode="+" glyph-name="plus" horiz-adv-x="910" d="M59 762H331V1051H586V762H851V517H586V238H331V517H59V762Z" />
<glyph unicode="," glyph-name="comma" horiz-adv-x="716" d="M95 -223Q140 -223 173 -217T226 -195T259 -163T276 -117T283 -65T284 0H95V366H605Q629 212 629 89Q629 -189 499 -318T95 -448V-223Z" />
<glyph unicode="-" glyph-name="hyphen" horiz-adv-x="838" d="M742 836V537H95V836H742Z" />
<glyph unicode="." glyph-name="period" horiz-adv-x="678" d="M335 -27Q216 -27 137 40T58 223Q58 336 135 402T335 468Q462 468 542 402T622 223Q622 108 540 41T335 -27Z" />
<glyph unicode="/" glyph-name="slash" horiz-adv-x="954" d="M52 0L543 1623H907L405 0H52Z" />
<glyph unicode="0" glyph-name="zero" horiz-adv-x="1370" d="M68 695Q68 837 111 959T234 1171T429 1312T686 1365Q824 1364 940 1313T1136 1172T1258 960T1302 695Q1302 479 1236 319T1029 66T686 -26Q482 -27 342 66T135 319T68 695ZM685 349Q729 349 757 380T798
466T813 565T817 669Q817 678 817 697Q817 724 817 752T815 810T808 867T794 918T770 960T735 988T685 998Q653 998 629 985T591 948T568 894T557 830T553 762T553 697Q553 678 553 669Q553 623 554 588T564 505T585 426T624 372T685 349Z" />
<glyph unicode="1" glyph-name="one" horiz-adv-x="924" d="M137 0L136 325L226 324V951L62 950V1208L724 1375L730 324H826V0H137Z" />
<glyph unicode="2" glyph-name="two" horiz-adv-x="1330" d="M1260 0V471H1087Q1087 426 1070 397T1021 352T954 331T871 324H710Q797 389 838 420T954 519T1070 639Q1176 775 1176 928Q1176 1034 1135 1120T1023 1263T857 1351T654 1387Q573 1390 492 1374T336
1321T205 1232T113 1107T80 950Q77 844 114 749T228 586L454 760Q447 767 437 778T409 824T392 889Q392 951 427 991T527 1031Q580 1031 620 984T664 859Q664 796 648 744T595 644T528 566T439 487Q310 377 117 303V0H1260Z" />
<glyph unicode="3" glyph-name="three" horiz-adv-x="1274" d="M83 424V78Q172 18 285 0T557 -18Q857 -18 1031 110T1206 474Q1206 614 1103 726T855 851Q1139 1085 1139 1088V1352H70V899L264 898Q285 978 300 1000Q329 1041 401 1041H621V1031L279 740V582Q279
582 280 577Q286 572 300 572Q306 572 347 582T427 592Q472 592 513 584T592 558T653 506T676 424Q676 383 655 354T600 308T529 285T453 278Q264 278 83 424Z" />
<glyph unicode="4" glyph-name="four" horiz-adv-x="1281" d="M1000 288H1122V0H417V288H544V420L11 419V688L562 1342L1001 1341V675L1228 677V420H1000V288ZM544 677V911L355 678L544 677Z" />
<glyph unicode="5" glyph-name="five" horiz-adv-x="1167" d="M113 75Q159 30 269 6T478 -18Q580 -18 671 1T842 62T979 165T1070 315T1103 513Q1103 697 966 819T628 941Q572 941 520 937T442 928L417 924V1063H1028V1360H112V566L124 555Q210 619 302 619Q361
619 416 603T512 546T554 446Q554 398 528 363T463 312T389 288T325 281Q291 281 238 297T149 330L113 347V75Z" />
<glyph unicode="6" glyph-name="six" horiz-adv-x="1355" d="M588 1345Q574 1331 534 1292T469 1229T401 1160T328 1083T260 1002T194 913T140 823T94 727T66 632T55 534Q55 370 139 243T366 49T682 -18Q844 -18 985 54T1214 256T1302 544Q1304 755 1175 883T829
1023Q839 1050 911 1128T1054 1275T1124 1345H588ZM571 550Q571 588 572 612T579 670T597 724T632 759T688 775Q718 775 739 756T770 714T785 652T791 595T792 544Q792 327 676 327Q642 327 620 351T588 415T575 486T571 550Z" />
<glyph unicode="7" glyph-name="seven" horiz-adv-x="1232" d="M63 878H281Q281 963 312 991T412 1020H653L148 0H680L1206 1067V1337H63V878Z" />
<glyph unicode="8" glyph-name="eight" horiz-adv-x="1322" d="M61 375Q61 630 322 730Q235 763 187 837T138 1010Q138 1096 174 1163T264 1269T392 1334T530 1368T662 1378Q727 1377 792 1368T930 1334T1057 1270T1148 1163T1184 1010Q1184 911 1136 837T1000
730Q1261 630 1261 375Q1261 282 1221 210T1121 96T977 27T818 -9T661 -18Q580 -18 505 -9T346 27T202 96T101 210T61 375ZM581 406Q581 240 661 240Q741 240 741 406Q741 578 663 578Q581 578 581 406ZM581 986Q581 824 663 826Q741 824 741 986Q741 1014 739
1033T729 1075T705 1109T663 1122Q635 1121 618 1110T593 1076T584 1034T581 986Z" />
<glyph unicode="9" glyph-name="nine" horiz-adv-x="1357" d="M235 0H772Q794 23 842 72T927 157T1014 250T1102 353T1179 461T1245 576T1287 692T1304 813Q1304 971 1225 1098T1006 1296T694 1368Q412 1368 233 1202T53 782Q53 586 192 454T538 321Q497 269 421
189T290 54L235 0ZM575 782Q575 1012 686 1012Q716 1012 737 986T766 920T778 848T782 790Q782 573 684 573Q575 573 575 782Z" />
<glyph unicode=":" glyph-name="colon" horiz-adv-x="724" d="M357 596Q238 596 159 663T80 846Q80 959 157 1025T357 1091Q484 1091 564 1025T644 846Q644 731 562 664T357 596ZM357 -18Q238 -18 159 49T80 232Q80 345 157 411T357 477Q484 477 564 411T644 232Q644
117 562 50T357 -18Z" />
<glyph unicode=";" glyph-name="semicolon" horiz-adv-x="720" d="M105 -448Q379 -448 509 -319T639 89Q639 212 615 366H105V0H294Q294 -42 293 -64T287 -117T269 -163T237 -194T183 -216T105 -223V-448ZM372 595Q253 595 174 662T95 845Q95 958 172 1024T372
1090Q499 1090 579 1024T659 845Q659 730 577 663T372 595Z" />
<glyph unicode="&lt;" glyph-name="less" horiz-adv-x="909" d="M57 946L772 1542V1077L439 761L772 445V-20L57 576V946Z" />
<glyph unicode="=" glyph-name="equal" horiz-adv-x="844" d="M746 392V169H99V392H746ZM746 761V538H99V761H746Z" />
<glyph unicode="&gt;" glyph-name="greater" horiz-adv-x="909" d="M852 576L137 -20V445L470 761L137 1077V1542L852 946V576Z" />
<glyph unicode="?" glyph-name="question" horiz-adv-x="1311" d="M359 891Q755 1070 755 1249Q755 1265 752 1283T740 1326T710 1365T659 1381Q539 1381 529 1219H57Q71 1445 240 1591T667 1737Q836 1737 973 1677T1189 1511T1267 1272Q1267 1204 1248 1143T1198
1036T1121 946T1028 873T921 814T813 766T705 726V539H358L359 891ZM538 -27Q419 -27 340 40T261 223Q261 336 338 402T538 468Q665 468 745 402T825 223Q825 108 743 41T538 -27Z" />
<glyph unicode="@" glyph-name="at" horiz-adv-x="1899" d="M1399 398Q1423 398 1442 402T1484 423T1522 468T1547 550T1557 677Q1557 877 1412 997T987 1117Q703 1117 550 968T397 567Q397 456 437 361T556 193T757 79T1037 37Q1124 37 1200 59L1252 -169Q1142
-198 1037 -198Q813 -198 630 -138T329 27T146 270T82 567Q82 733 143 878T317 1134T603 1308T987 1372Q1184 1372 1347 1318T1617 1169T1783 948T1842 677Q1842 572 1810 488T1710 339T1530 239T1267 204H1117L1079 294Q1044 245 984 218T866 190Q747 190 664
299T580 588Q580 665 604 730T676 849T809 933T1005 964Q1034 964 1057 963T1123 955T1200 934T1272 894T1337 831T1380 735T1398 603L1399 398ZM923 582Q923 489 943 432T996 374Q1051 374 1079 409V671Q1079 754 1062 785T1003 817Q978 817 962 798T937 742T926
669T923 582Z" />
<glyph unicode="A" glyph-name="A" horiz-adv-x="1643" d="M1185 1623H191V1270H403L231 591Q204 486 193 462Q160 386 82 367Q48 359 4 359V0H682V359H598Q577 359 566 395T555 459Q556 480 557 491T565 512T585 523H860Q927 523 927 359H807L808 0H1634V359H1548Q1533
359 1522 371T1506 400T1492 447L1185 1623ZM612 773L724 1281L841 773H612Z" />
<glyph unicode="B" glyph-name="B" horiz-adv-x="1666" d="M89 0H1031Q1160 0 1263 23T1447 94T1572 225T1616 420Q1616 589 1534 697T1302 848V850Q1411 891 1479 985T1547 1204Q1547 1304 1517 1378T1435 1499T1300 1574T1125 1612T910 1623L96 1622V1270H262L261
359H89V0ZM863 700Q892 700 915 698T966 685T1014 656T1047 605T1061 527Q1061 502 1058 481T1048 445T1032 416T1012 395T986 380T957 370T924 364T889 360T851 359T811 359Q796 359 789 359V699Q852 700 863 700ZM789 1270H915Q971 1270 1012 1234T1053 1131Q1053
1076 1037 1041T986 989T918 967T830 961H789V1270Z" />
<glyph unicode="C" glyph-name="C" horiz-adv-x="1538" d="M1456 612H1155Q1151 538 1147 518Q1132 438 1071 391T928 343Q867 343 821 365T750 424T707 509T685 609T678 713T678 811Q678 841 678 855Q678 902 679 935T685 1017T699 1100T726 1173T768 1235T830
1274T915 1290Q978 1290 1026 1263T1100 1190T1138 1095T1149 991H1447L1446 1623H1135L1101 1552Q1056 1595 989 1618T868 1647T741 1652Q600 1652 484 1603T290 1472T159 1280T81 1050T57 804Q57 552 142 367T402 76T825 -29Q929 -29 1032 -5T1209 52T1340 120T1427
178L1456 202V612Z" />
<glyph unicode="D" glyph-name="D" horiz-adv-x="1801" d="M98 0H900Q1102 0 1265 67T1531 247T1689 507T1744 816Q1744 1212 1539 1417T922 1623H92V1271H261V359H98V0ZM808 359V1271H855Q929 1271 984 1243T1070 1171T1119 1064T1144 944T1150 817Q1150 750
1143 690T1114 568T1060 461T972 388T843 359H808Z" />
<glyph unicode="E" glyph-name="E" horiz-adv-x="1490" d="M1099 968L1023 1270H810V988H1015V636H810V359H1029L1042 420L1105 687H1378V0H99V359H257V1270H99V1623H1367V969L1099 968Z" />
<glyph unicode="F" glyph-name="F" horiz-adv-x="1407" d="M1025 643H823V359H977V0H100V359H258V1270H100V1623H1375V959H1091L1027 1270H823V999H1025V643Z" />
<glyph unicode="G" glyph-name="G" horiz-adv-x="1720" d="M1344 0H1620V862H995V558L1155 557Q1163 528 1163 476Q1163 403 1106 361T973 318Q658 318 658 759Q658 822 662 874T677 990T710 1102T767 1193T855 1257T979 1280Q1042 1280 1089 1262T1165 1215T1214
1139T1243 1049T1260 945H1548V1623H1233L1189 1561Q1061 1652 856 1652Q665 1652 511 1584T257 1398T106 1125T53 792Q53 638 95 506T215 277T398 110T633 6T907 -29Q1157 -29 1302 101L1344 0Z" />
<glyph unicode="H" glyph-name="H" horiz-adv-x="1908" d="M105 359H252V1270H105V1623H914V1270H819V986H1088V1270H1000V1623H1798V1270H1657V359H1804V0H1004V359H1088V635H819V359H915L914 0H105V359Z" />
<glyph unicode="I" glyph-name="I" horiz-adv-x="1076" d="M972 1270H825V359H966V0H104V359H251V1270H108V1623H972V1270Z" />
<glyph unicode="J" glyph-name="J" horiz-adv-x="1314" d="M30 -13H300L337 79Q426 -30 625 -30Q859 -30 990 107T1121 475V1270H1268V1623H414V1270H568V572Q568 462 541 414T457 365Q432 365 412 376T379 402T357 443T344 489T337 541T335 589T334 633H30V-13Z" />
<glyph unicode="K" glyph-name="K" horiz-adv-x="1799" d="M105 1622H926V1270H799V887L1086 1270V1622L1710 1623V1270H1573L1254 864V850Q1332 850 1392 838T1500 799T1574 723T1600 602V461Q1600 426 1618 393T1667 359H1757L1763 0H1415Q1079 0 1079 307V492Q1079
540 1047 590T969 640H799V359H926L932 35V0H105V359H252V1270H105V1622Z" />
<glyph unicode="L" glyph-name="L" horiz-adv-x="1421" d="M818 359H1009L1096 709H1382V0H109L108 359H251V1270H104V1622H972V1270H818V359Z" />
<glyph unicode="M" glyph-name="M" horiz-adv-x="2408" d="M589 999L1005 0H1286L1628 977V359H1505V0H2308V359H2154V1270H2301V1623H1517L1241 856L931 1623H96L97 1270H264V608Q264 574 264 558T263 514T258 473T250 440T236 411T216 389T187 372T149 363T100
359V0H751V359Q724 359 702 362T664 370T636 385T616 402T603 424T595 448T591 476T589 505T589 535V999Z" />
<glyph unicode="N" glyph-name="N" horiz-adv-x="1874" d="M1814 1622L1177 1623V1270Q1216 1271 1245 1266T1290 1248T1317 1222T1330 1187T1334 1152T1335 1116V647L839 1623H104V1272H261V550Q261 512 259 490T249 440T224 396T176 370T98 359V0H735V359Q650
359 614 392T577 507V908L1050 0H1656V1118Q1656 1192 1692 1231T1814 1270V1622Z" />
<glyph unicode="O" glyph-name="O" horiz-adv-x="1744" d="M1692 808Q1692 573 1585 381T1289 80T872 -29Q643 -29 455 80T160 381T52 808Q52 1066 159 1259T451 1553T874 1653Q1108 1653 1292 1553T1584 1260T1692 808ZM872 319Q911 319 942 332T994 368T1032
422T1057 489T1072 565T1079 643T1082 721T1082 793Q1082 813 1082 823Q1082 834 1082 858Q1081 894 1082 934T1079 1016T1068 1099T1045 1175T1008 1238T951 1280T872 1296Q833 1296 802 1284T749 1251T712 1201T687 1139T672 1069T664 996T662 924T662 858Q662
834 662 823Q662 813 662 793Q663 763 662 730T663 662T669 591T679 522T697 458T723 403T759 359T809 330T872 319Z" />
<glyph unicode="P" glyph-name="P" horiz-adv-x="1651" d="M99 0H960V359H814V569Q893 559 964 559Q1117 559 1235 588T1443 680T1579 850T1624 1106Q1623 1191 1608 1261T1565 1381T1500 1472T1416 1537T1317 1580T1204 1605T1083 1618T955 1623T825 1623Q809
1623 801 1623T779 1623T755 1623H104V1270H255V359H99V0ZM814 1270H898Q976 1270 1029 1228T1082 1096Q1082 895 855 895H814V1270Z" />
<glyph unicode="Q" glyph-name="Q" horiz-adv-x="1765" d="M893 -30Q933 -30 1009 -22L1260 0H1744V359H1581Q1702 562 1702 807Q1702 1001 1641 1161T1471 1428T1213 1593T887 1652Q641 1652 451 1546T157 1250T53 815Q53 565 156 374T450 76T893 -30ZM670 777Q670
839 670 895T674 1002T685 1095T708 1170T746 1227T803 1262T882 1275Q933 1275 970 1257T1030 1198T1065 1122T1084 1022T1091 923T1092 822Q1092 807 1092 775Q1095 732 1093 683T1087 586T1071 492T1037 413T979 359T893 338Q854 338 823 347T770 375T731 416T704
472T686 537T676 613T672 692T670 777Z" />
<glyph unicode="R" glyph-name="R" horiz-adv-x="1765" d="M912 359H791V694H889Q949 694 987 677T1043 625T1068 550T1075 451V256Q1075 215 1083 181T1103 121T1136 77T1177 45T1228 23T1283 10T1343 3T1403 1T1465 0H1727V359Q1671 359 1638 365T1588 387T1568
420T1563 466V559Q1563 651 1499 712T1286 807Q1458 839 1551 932T1645 1170Q1645 1293 1608 1381T1500 1522T1334 1599T1116 1623H101V1270H256V359H102V-1Q648 0 912 0V359ZM785 920V1270H906Q995 1270 1045 1223T1096 1096Q1096 1046 1075 1010T1017 955T939
928T846 920H785Z" />
<glyph unicode="S" glyph-name="S" horiz-adv-x="1329" d="M874 1623Q846 1575 842 1563Q723 1653 530 1653Q307 1653 191 1512T74 1133Q74 1067 83 1010T109 907T151 821T206 749T275 690T353 642T443 601T539 567T643 535Q680 525 705 514T752 479T774 420Q774
379 742 357T665 334Q592 334 525 389T432 518H110V0H433L469 92Q547 26 618 -1T798 -29Q903 -29 994 16T1147 137T1243 309T1276 508Q1274 612 1248 696T1178 837T1080 937T965 1007T844 1055T729 1091T632 1123T566 1161T541 1213Q541 1259 566 1282T635 1305Q710
1305 772 1245T852 1107H1159V1623H874Z" />
<glyph unicode="T" glyph-name="T" horiz-adv-x="1535" d="M1215 965L1153 1270H1047V360H1211V0H320V360H484V1270H384L320 965H39V1622H1496V965H1215Z" />
<glyph unicode="U" glyph-name="U" horiz-adv-x="1683" d="M1485 1270H1639V1622H985V1270H1149V536Q1149 448 1097 397T953 346Q901 346 863 368T804 427T774 508T764 600V1270H912V1622H43V1270H204V704Q204 616 211 541T238 390T289 253T369 138T482 48T636
-8T834 -29Q1005 -29 1153 39T1393 234T1485 520V1270Z" />
<glyph unicode="V" glyph-name="V" horiz-adv-x="1668" d="M743 1270H859V1622H-6V1270H160L521 0H1105L1459 1032Q1465 1049 1475 1081T1490 1126T1504 1163T1521 1196T1540 1222T1564 1244T1595 1257T1635 1267T1684 1270V1622H990V1270Q1064 1270 1100 1247T1138
1181T1121 1081L945 517L743 1270Z" />
<glyph unicode="W" glyph-name="W" horiz-adv-x="2460" d="M-4 1623L-5 1270H139L488 0H1025L1227 706L1420 0H1963L2284 1148Q2304 1219 2346 1244T2473 1270V1623H1822V1270Q1896 1270 1920 1258T1932 1201L1797 703L1544 1623H1135L875 672L716 1270H857V1623H-4Z" />
<glyph unicode="X" glyph-name="X" horiz-adv-x="1863" d="M1798 1623H1061V1270Q1084 1270 1115 1258T1147 1226Q1147 1210 1125 1170T1079 1096L1057 1064L895 1270H977V1623H99V1270H230L601 862L314 493Q253 408 196 384T8 359V0H836L830 359H746Q720 359
701 376T682 420Q682 434 688 453T703 483L813 634L1056 359H930V0H1829V359H1707L1278 829L1536 1180Q1574 1233 1640 1251T1798 1270V1623Z" />
<glyph unicode="Y" glyph-name="Y" horiz-adv-x="1559" d="M1564 1622H927V1270Q935 1270 949 1270T971 1270T989 1270T1005 1269T1018 1265T1029 1259T1037 1250T1042 1238T1044 1221Q1044 1166 930 993Q909 1023 839 1131T746 1270H837V1622H-15V1270H97L518
672V359H363V0H1232V359H1075V724L1279 1095Q1303 1140 1314 1159T1346 1206T1384 1243T1428 1262T1490 1270H1564V1622Z" />
<glyph unicode="Z" glyph-name="Z" horiz-adv-x="1607" d="M1495 1293L818 359H1127L1234 705H1516L1515 0H106L105 350L784 1270H469L389 938H101V1622H1495V1293Z" />
<glyph unicode="[" glyph-name="bracketleft" horiz-adv-x="910" d="M145 0V1623H859V1322H662V311H855L854 0H145Z" />
<glyph unicode="\" glyph-name="backslash" horiz-adv-x="1031" d="M400 0L58 1623H632L973 0H400Z" />
<glyph unicode="]" glyph-name="bracketright" horiz-adv-x="909" d="M55 0L54 311H247V1322H50V1623H764V0H55Z" />
<glyph unicode="^" glyph-name="asciicircum" horiz-adv-x="1707" d="M1088 1624L1584 909H1119L903 1242L687 909H222L718 1624H1088Z" />
<glyph unicode="_" glyph-name="underscore" horiz-adv-x="1165" d="M1179 -1V-224H-14V-1H1179Z" />
<glyph unicode="`" glyph-name="grave" horiz-adv-x="1016" d="M281 1708L755 1271L651 1130L97 1443L281 1708Z" />
<glyph unicode="a" glyph-name="a" horiz-adv-x="1294" d="M30 308Q30 159 143 71T419 -18Q501 -18 588 18T725 119L775 0H1247V305H1171V750Q1171 819 1146 874T1083 965T989 1025T884 1063T773 1083T677 1091T603 1092Q496 1092 375 1075T187 1040L120 1022V708H295Q367
803 510 803Q721 803 721 637V592Q611 630 465 630Q382 630 306 610T167 550T68 448T30 308ZM520 326Q520 369 551 403T625 438Q647 438 671 433T710 422L724 417V270Q720 265 712 258T676 237T616 224Q572 224 546 252T520 326Z" />
<glyph unicode="b" glyph-name="b" horiz-adv-x="1401" d="M599 1631H33V1325H117V0H567L607 102Q705 32 742 14Q808 -18 883 -18Q976 -18 1054 13T1188 97T1281 221T1338 372T1356 538Q1356 619 1339 697T1285 847T1196 973T1068 1060T904 1092Q756 1092 599
965V1631ZM603 662Q605 666 608 672T625 695T652 724T689 747T738 758Q777 758 805 741T850 700T875 642T887 579T890 519Q890 427 847 378T738 328Q702 328 668 345T618 379L603 396V662Z" />
<glyph unicode="c" glyph-name="c" horiz-adv-x="1110" d="M43 546Q43 368 116 239T313 46T595 -18Q721 -18 845 18T1038 124V425H798Q797 420 796 411T786 380T765 340T728 309T671 295Q628 295 597 315T548 368T524 437T516 513Q516 648 562 713T671 778Q722
778 758 736T794 628H1036V1072H861L820 995Q699 1092 562 1092Q445 1092 346 1048T182 928T80 754T43 546Z" />
<glyph unicode="d" glyph-name="d" horiz-adv-x="1442" d="M1370 305H1293L1292 1640H707V1335H797V960Q729 1029 660 1059T498 1090Q395 1090 308 1043T163 919T75 746T43 550Q43 445 72 346T156 165T302 32T506 -19Q596 -18 673 21T801 128V0H1370V305ZM801
415Q799 411 796 405T779 382T752 353T715 330T666 319Q627 319 599 336T554 377T529 435T517 498T514 558Q514 650 557 699T666 749Q702 749 736 732T786 698L801 681V415Z" />
<glyph unicode="e" glyph-name="e" horiz-adv-x="1224" d="M611 -18Q771 -18 898 15T1158 127V351H851Q849 292 816 257T711 222Q629 222 582 288T534 456H1136Q1155 448 1159 451T1173 484Q1178 521 1178 555Q1178 705 1116 825T926 1018T627 1092Q447 1092 313
1018T109 815T40 521Q40 374 113 251T317 55T611 -18ZM536 656Q536 717 563 765T644 814Q681 814 705 797T738 747T749 688T751 627H536V656Z" />
<glyph unicode="f" glyph-name="f" horiz-adv-x="875" d="M175 1207Q177 1075 177 1072H94V761H178V305H94V0H774V305H664V761H836V1072H657Q651 1180 677 1222T767 1265Q805 1265 863 1252V1563Q849 1568 823 1576T716 1597T555 1610Q175 1610 175 1207Z" />
<glyph unicode="g" glyph-name="g" horiz-adv-x="1414" d="M564 -389Q1258 -389 1258 135V761H1345V1072H892L859 997Q686 1090 534 1090Q395 1090 282 1012T107 810T45 548Q45 445 76 352T167 187T318 71T522 28Q599 28 675 51T809 117Q809 53 792 12T738 -50T655
-79T540 -87Q362 -87 176 -19V-328Q189 -335 216 -345T344 -372T564 -389ZM528 532Q528 593 539 641T583 725T665 760Q713 760 747 722T794 632T808 523Q808 486 801 449T778 378T736 321T673 299Q620 299 586 336T540 422T528 532Z" />
<glyph unicode="h" glyph-name="h" horiz-adv-x="1451" d="M71 0H724V305H644V626Q644 744 745 744Q827 744 828 619V0H1404V305H1318V702Q1318 891 1224 990T960 1090Q925 1090 893 1084T838 1072T788 1048T747 1022T708 988T675 954T640 916V1640H67V1332H151V305H72L71
0Z" />
<glyph unicode="i" glyph-name="i" horiz-adv-x="814" d="M661 1072H91V761H180V305H98V0H745V305H661V1072ZM380 1135Q261 1135 182 1202T103 1385Q103 1498 180 1564T380 1630Q507 1630 587 1564T667 1385Q667 1270 585 1203T380 1135Z" />
<glyph unicode="j" glyph-name="j" horiz-adv-x="772" d="M49 -72L51 -398Q224 -398 341 -366T528 -266T626 -103T655 129V1072H66V760H156V-9Q156 -46 121 -61T49 -72ZM371 1135Q252 1135 173 1202T94 1385Q94 1498 171 1564T371 1630Q498 1630 578 1564T658
1385Q658 1270 576 1203T371 1135Z" />
<glyph unicode="k" glyph-name="k" horiz-adv-x="1413" d="M646 438V0H69V305H152V1330H68V1634H646V587L847 761H752V1072H1336V761H1185L1042 644V618L1269 305H1384V0H931L646 438Z" />
<glyph unicode="l" glyph-name="l" horiz-adv-x="794" d="M644 305H722V0H75V305H149V1317H65V1630H644V305Z" />
<glyph unicode="m" glyph-name="m" horiz-adv-x="2073" d="M830 0V638Q830 738 718 738Q683 738 662 718T630 667T614 603T610 541V303H690V0H95V299H168V761H94V1072H610V902Q644 949 687 984T779 1044T877 1080T975 1092Q1059 1092 1129 1040T1243 891Q1378
1092 1592 1092Q1662 1092 1725 1072T1837 1009T1913 896T1942 729V305H2016V0H1487V635Q1482 683 1457 713T1387 743Q1355 743 1333 731T1297 696T1275 643T1267 579V305H1352V0H830Z" />
<glyph unicode="n" glyph-name="n" horiz-adv-x="1483" d="M661 1072H98V761H174V305H91V0H749V305H661V624Q661 671 689 704T765 737Q801 737 828 706T855 627V0H1429V305H1349V680Q1349 1092 1019 1092Q901 1092 809 1047T661 916V1072Z" />
<glyph unicode="o" glyph-name="o" horiz-adv-x="1290" d="M43 547Q43 807 204 949T644 1091Q925 1091 1086 949T1247 547Q1247 372 1171 243T959 48T645 -18Q467 -18 332 48T120 243T43 547ZM508 545Q508 294 645 294T782 545Q782 596 778 631T760 704T718 760T645
779T572 760T530 704T513 632T508 545Z" />
<glyph unicode="p" glyph-name="p" horiz-adv-x="1438" d="M740 -397V-96H629V119Q670 86 690 72T753 32T842 -5T940 -17Q1049 -17 1137 30T1280 157T1364 335T1393 541Q1393 649 1363 748T1278 924T1135 1047T942 1093Q849 1093 782 1061T650 956H640V1072H76V761H150V-94H66V-397H740ZM629
417V645Q630 649 632 655T644 677T667 706T705 729T761 739Q924 739 924 545Q924 501 917 463T892 388T840 331T758 310Q726 310 701 321T663 348T642 379T631 406L629 417Z" />
<glyph unicode="q" glyph-name="q" horiz-adv-x="1438" d="M715 -397V-96H826V128Q793 100 779 89T729 52T666 16T598 -6T515 -17Q423 -17 347 16T219 105T131 238T79 397T62 571Q62 673 94 767T185 933T331 1049T523 1092Q620 1092 687 1067T825 985H835L899
1072H1379V761H1305V-94H1389V-398L715 -397ZM826 526Q832 557 827 599T810 678T769 742T694 768Q551 768 551 554Q551 496 562 449T607 366T697 329Q741 329 771 362T814 438T826 526Z" />
<glyph unicode="r" glyph-name="r" horiz-adv-x="1000" d="M94 1072H637V909L641 905Q690 989 782 1036T973 1083V667L867 674Q757 674 694 611T631 426V305H768V0H94V305H173V761H94V1072Z" />
<glyph unicode="s" glyph-name="s" horiz-adv-x="1055" d="M976 761V1081H808L781 1033Q771 1040 751 1049T655 1075T487 1092Q366 1092 276 1057T130 943T75 746Q75 669 102 611T173 519T269 461T375 419T471 386T542 346T570 287Q570 249 537 229T462 209Q396
209 350 263T292 387H71L64 9H241L277 76Q377 -18 585 -18Q788 -18 892 87T996 395Q996 621 755 719Q741 724 694 736T612 759T547 793T517 846Q517 881 544 900T609 920Q643 920 678 902T732 856Q736 851 747 827T767 782L775 761H976Z" />
<glyph unicode="t" glyph-name="t" horiz-adv-x="873" d="M837 348Q774 334 729 334Q673 334 652 366T631 438L632 761H784V1072H632V1406L145 1301V1072H42V761H150L149 385Q147 -18 529 -18Q609 -18 686 -2T800 32L837 49V348Z" />
<glyph unicode="u" glyph-name="u" horiz-adv-x="1465" d="M821 156Q766 71 674 27T463 -18Q133 -18 133 385V761H53V1072H627V438Q627 385 654 352T717 318Q764 318 792 352T821 438V761H740V1072H1315V305H1391V0H821V156Z" />
<glyph unicode="v" glyph-name="v" horiz-adv-x="1314" d="M762 1072V761Q822 761 849 742T861 680L730 338L561 761H652V1072H8V761H82L402 0H875L1166 682Q1183 723 1213 742T1309 761V1072H762Z" />
<glyph unicode="w" glyph-name="w" horiz-adv-x="1929" d="M797 0L948 430L1078 0H1553L1706 483Q1712 503 1722 540T1739 598T1758 649T1783 695T1815 729T1861 753T1921 761V1072H1364V761Q1376 761 1384 761T1405 760T1426 757T1444 751T1459 741T1468 727T1472
708T1468 682L1383 380Q1364 430 1310 603T1210 924L1165 1072H899L689 392L576 761H690V1072H26V761H95L353 0H797Z" />
<glyph unicode="x" glyph-name="x" horiz-adv-x="1199" d="M1166 0H713L524 277L317 0H40V305H171L351 512L169 761H60V1072H534L696 821L881 1072H1135V761H1025L862 580L1055 305H1166V0Z" />
<glyph unicode="y" glyph-name="y" horiz-adv-x="1377" d="M360 -377H1051V-82H819L1197 628Q1218 668 1228 684T1259 723T1307 753T1373 761V1072H793V761Q863 761 883 751Q920 731 888 662L791 454L615 761H683V1072H3V761H91L557 31L360 -377Z" />
<glyph unicode="z" glyph-name="z" horiz-adv-x="1214" d="M64 0H1149V451H966Q956 414 946 390T920 349T892 324T852 311T806 306T744 305H643V316L1112 795V1072H90V636H287Q287 659 290 677T303 708T320 730T346 745T376 754T413 759T453 760T498 761H558V750L64
283V0Z" />
<glyph unicode="{" glyph-name="braceleft" horiz-adv-x="873" d="M169 1128Q169 1246 208 1348T325 1531T528 1658T815 1704V1373Q653 1373 653 1127Q653 936 402 843Q653 751 653 560Q653 314 815 314V-17Q654 -17 528 29T325 155T209 338T169 559Q169 591 164
615T143 664T92 705T4 722V965Q57 967 92 982T142 1022T163 1072T169 1128Z" />
<glyph unicode="|" glyph-name="bar" horiz-adv-x="685" d="M540 1623V0H145V1623H540Z" />
<glyph unicode="}" glyph-name="braceright" horiz-adv-x="872" d="M704 1128Q704 1096 709 1072T730 1023T781 982T869 965V722Q816 720 781 705T731 665T710 615T704 559Q704 441 665 339T548 156T345 29T58 -17V314Q220 314 220 560Q220 751 471 843Q220 936
220 1127Q220 1373 58 1373V1704Q219 1704 345 1658T548 1532T664 1349T704 1128Z" />
<glyph unicode="~" glyph-name="asciitilde" horiz-adv-x="1289" d="M914 629Q859 629 800 650T688 700T587 760T485 811T388 832Q361 832 323 798T176 634L45 720Q69 757 99 820T155 929T214 1023T294 1096T399 1122Q454 1122 513 1102T625 1052T727 993T831
944T928 923Q953 923 993 958T1137 1117L1266 1032Q1242 996 1212 934T1157 824T1098 729T1018 655T914 629Z" />
<glyph unicode="&#xa0;" glyph-name="uni00A0" horiz-adv-x="480" />
<glyph unicode="&#xa1;" glyph-name="exclamdown" horiz-adv-x="804" d="M611 1072L190 1074L108 299V0H695V299L611 1072ZM400 1158Q281 1158 202 1225T123 1408Q123 1521 200 1587T400 1653Q527 1653 607 1587T687 1408Q687 1293 605 1226T400 1158Z" />
<glyph unicode="&#xa2;" glyph-name="cent" horiz-adv-x="1149" d="M733 1362V1057Q783 1034 833 995L874 1072H1049V628H807Q807 677 787 713T733 766V305Q752 313 767 329T790 360T803 392T809 415T811 425H1051V124Q948 21 733 -9V-261H621V-18H608Q450 -18
327 45T130 238T56 546Q56 655 92 754T194 928T359 1047T575 1092Q598 1092 621 1089V1362H733ZM529 513Q529 446 551 389T621 309V759Q529 701 529 513Z" />
<glyph unicode="&#xa3;" glyph-name="sterling" horiz-adv-x="1285" d="M745 365L776 356Q808 348 882 340T1041 331Q1117 331 1216 340V29Q1079 -18 944 -18Q690 -18 690 153Q586 -19 348 -19Q236 -19 65 29V340Q123 327 161 327Q223 327 247 368T271 520V760H147V993H271V1207Q271
1293 306 1362T399 1477T535 1552T696 1596T865 1609Q1050 1609 1182 1563V1252Q1060 1265 974 1265Q863 1265 804 1232T745 1117V993H998V760H745V519V365Z" />
<glyph unicode="&#xa4;" glyph-name="currency" horiz-adv-x="1292" d="M70 1097Q70 1307 185 1450L118 1518L221 1621L292 1549Q445 1654 644 1654Q849 1654 1002 1544L1079 1621L1182 1518L1108 1444Q1218 1302 1218 1097Q1218 884 1101 741L1182 660L1079 557L993
643Q842 540 644 540Q450 540 302 638L221 557L118 660L192 734Q70 879 70 1097ZM991 1269Q959 1347 905 1394T783 1467T644 1493T505 1468T384 1395T297 1270T264 1097T296 925T383 800T505 727T644 701T783 726T904 799T991 924T1024 1097T991 1269Z" />
<glyph unicode="&#xa5;" glyph-name="yen" horiz-adv-x="1708" d="M171 936V762H530L593 672V630H171V456H593V371H438V0H1307V371H1150V456H1564V630H1150V762H1564V936H1253L1354 1095Q1379 1141 1390 1160T1421 1206T1459 1244T1503 1263T1565 1272H1639V1622H1002V1272Q1077
1272 1092 1266Q1119 1257 1119 1221Q1119 1166 1005 993Q984 1024 914 1134T821 1274H912V1622H60V1274H172L408 936H171Z" />
<glyph unicode="&#xa6;" glyph-name="brokenbar" horiz-adv-x="687" d="M541 721V0H146V721H541ZM541 1623V902H146V1623H541Z" />
<glyph unicode="&#xa7;" glyph-name="section" horiz-adv-x="1080" d="M76 837Q76 922 132 993T280 1097Q115 1216 115 1356Q115 1474 216 1556T466 1638Q518 1638 565 1631T639 1615T690 1595T720 1580T730 1572L757 1623H925V1300H724L681 1395Q664 1427 636
1446T578 1466Q546 1466 521 1443T495 1377Q495 1349 523 1320T598 1264T699 1207T809 1141T910 1065T984 970T1013 855Q1013 751 957 668T801 555Q962 457 962 296Q962 175 859 79T606 -18Q511 -18 441 -2T318 68L282 1H112V379H333Q345 311 394 260T513 209Q547
209 574 229T601 287Q601 323 572 358T497 425T394 488T283 556T181 633T105 726T76 837ZM497 988Q395 938 395 878Q395 830 463 781T638 689Q724 744 724 821Q724 870 658 915T497 988Z" />
<glyph unicode="&#xa8;" glyph-name="dieresis" horiz-adv-x="1707" d="M720 1342Q720 1234 654 1173T496 1112Q403 1112 336 1173T268 1345Q268 1452 335 1512T494 1572T653 1512T720 1342ZM1337 1342Q1337 1234 1271 1173T1113 1112Q1020 1112 953 1173T885
1345Q885 1452 952 1512T1111 1572T1270 1512T1337 1342Z" />
<glyph unicode="&#xa9;" glyph-name="copyright" horiz-adv-x="1806" d="M129 1106Q196 1256 308 1364T576 1537T903 1602T1229 1538T1497 1365T1676 1106T1743 792T1677 478T1498 220T1230 47T903 -18T577 46T309 219T130 478T63 792T129 1106ZM903 1448Q768
1448 645 1396T433 1256T290 1047T237 792T290 538T432 328T645 188T903 136Q1083 136 1236 224T1479 463T1569 792T1480 1121T1237 1360T903 1448ZM1275 398L1257 383Q1239 368 1202 347T1119 304T1007 267T875 252Q639 252 514 394T388 780Q388 860 403 936T452
1082T535 1204T659 1287T822 1318Q984 1318 1050 1254L1072 1299H1269V898H1080Q1081 944 1068 985T1020 1057T932 1088Q897 1088 871 1076T829 1041T803 993T789 933T783 872T782 812Q782 805 782 777T781 736T783 694T787 650T795 609T809 570T829 538T856 511T893
495T940 488Q992 488 1030 517T1079 598Q1082 611 1084 658H1275V398Z" />
<glyph unicode="&#xaa;" glyph-name="ordfeminine" horiz-adv-x="999" d="M37 1046Q37 1103 64 1149T138 1225T240 1269T358 1284Q466 1284 547 1256V1289Q547 1411 391 1411Q286 1411 233 1341H103V1573L153 1586Q202 1599 291 1612T460 1625Q490 1625 514 1624T585
1618T667 1604T744 1576T813 1531T860 1464T879 1372V1044H935V819H587L550 907Q513 859 449 833T324 806Q205 806 121 871T37 1046ZM399 1060Q399 1026 418 1005T469 984Q493 984 513 993T540 1009T549 1018V1127L539 1131Q528 1135 510 1138T476 1142Q444 1142
422 1117T399 1060Z" />
<glyph unicode="&#xab;" glyph-name="guillemotleft" horiz-adv-x="1306" d="M643 669L1069 1073L1260 849L945 534L1260 219L1069 -5L643 399V669ZM33 669L459 1073L650 849L335 534L650 219L459 -5L33 399V669Z" />
<glyph unicode="&#xac;" glyph-name="logicalnot" horiz-adv-x="1195" d="M78 1092H1089V542H858V761H79L78 1092Z" />
<glyph unicode="&#xad;" glyph-name="uni00AD" horiz-adv-x="774" d="M717 836V537H70V836H717Z" />
<glyph unicode="&#xae;" glyph-name="registered" horiz-adv-x="1806" d="M129 1106Q196 1256 308 1364T576 1537T903 1602T1229 1538T1497 1365T1676 1106T1743 792T1677 478T1498 220T1230 47T903 -18T577 46T309 219T130 478T63 792T129 1106ZM903 1448Q768
1448 645 1396T433 1256T290 1047T237 792T290 538T432 328T645 188T903 136Q1083 136 1236 224T1479 463T1569 792T1480 1121T1237 1360T903 1448ZM923 363Q776 363 473 362V565H558V1061H472V1265H1036Q1178 1265 1254 1206T1331 1014Q1331 933 1279 881T1131
812Q1213 793 1249 759T1285 674V622Q1285 589 1301 576T1376 562V363H1230Q1190 363 1168 364T1112 372T1060 394T1028 436T1014 505V614Q1014 681 994 715T910 749H856V568H923V363ZM886 875Q1025 875 1025 972Q1025 1016 997 1043T920 1071H852V875H886Z" />
<glyph unicode="&#xaf;" glyph-name="glyph113" horiz-adv-x="774" d="M717 1433V1164H70V1433H717Z" />
<glyph unicode="0;" glyph-name="degree" horiz-adv-x="781" d="M385 1092Q482 1092 537 1152T593 1296Q593 1377 538 1436T385 1495Q290 1495 237 1436T184 1296Q184 1214 238 1153T385 1092ZM385 951Q301 951 233 980T121 1059T55 1170T32 1297Q32 1361
54 1420T119 1528T231 1604T385 1633Q474 1633 545 1605T660 1528T727 1421T751 1297Q751 1231 727 1170T659 1060T543 981T385 951Z" />
<glyph unicode="1;" glyph-name="plusminus" horiz-adv-x="849" d="M746 223V-1H99V223H746ZM69 762H301V1031H556V762H781V517H556V278H301V517H69V762Z" />
<glyph unicode="2;" glyph-name="uni00B2" horiz-adv-x="864" d="M108 286V468Q224 514 302 579Q348 618 371 642T416 710T437 803Q434 849 410 878T355 907Q316 907 295 883T273 821Q273 779 311 744L174 639Q82 721 85 858Q85 941 138 1004T270 1095T431
1121Q567 1116 656 1044T745 845Q745 752 681 671Q630 605 465 481H562Q623 483 657 501T692 570H796V286H108Z" />
<glyph unicode="3;" glyph-name="uni00B3" horiz-adv-x="824" d="M87 529Q193 443 304 443Q355 443 395 463T435 529Q435 581 391 604T289 627Q266 627 242 622T214 616L203 618Q202 621 202 621V714L402 884V890H274Q252 890 238 886T216 867T204 843T193
806L80 807V1072H706V918Q706 916 539 779Q624 771 684 706T745 558Q745 420 643 345T365 270Q272 270 206 280T87 326V529V529Z" />
<glyph unicode="4;" glyph-name="acute" horiz-adv-x="1016" d="M851 1443L297 1130L193 1271L667 1708L851 1443Z" />
<glyph unicode="5;" glyph-name="uni00B5" horiz-adv-x="1468" d="M827 156Q772 71 680 27T469 -18Q139 -18 139 385V761H59V1072H633V438Q633 385 660 352T723 318Q770 318 798 352T827 438V761H746V1072H1321V305H1397V0H827V156Z" />
<glyph unicode="6;" glyph-name="paragraph" horiz-adv-x="1555" d="M626 739Q493 739 392 761T212 832T94 965T56 1166Q57 1241 72 1303T115 1409T181 1489T265 1546T365 1584T478 1607T600 1619T728 1623T859 1623Q903 1623 925 1623H1426V1268H1275V363H1431V0H1022V1270H897V0H480V363H626V739Z"
/>
<glyph unicode="7;" glyph-name="middot" horiz-adv-x="682" d="M337 514Q218 514 139 581T60 764Q60 877 137 943T337 1009Q464 1009 544 943T624 764Q624 649 542 582T337 514Z" />
<glyph unicode="8;" glyph-name="cedilla" horiz-adv-x="502" d="M147 0H327V-119Q460 -196 460 -285Q460 -367 352 -426T91 -485H70V-372Q167 -371 212 -343T257 -271Q257 -231 225 -188T147 -119V0Z" />
<glyph unicode="9;" glyph-name="uni00B9" horiz-adv-x="615" d="M117 286L116 476H169V843L73 842V993L460 1091L464 476H520V286H117Z" />
<glyph unicode="a;" glyph-name="ordmasculine" horiz-adv-x="1032" d="M70 688Q70 881 189 986T516 1091Q724 1091 843 986T962 688Q962 493 840 382T516 270T193 381T70 688ZM415 686Q415 501 516 501Q618 501 618 686Q618 724 615 750T602 804T571 846T516
860T462 846T431 805T418 751T415 686Z" />
<glyph unicode="b;" glyph-name="guillemotright" horiz-adv-x="1306" d="M663 399L237 -5L46 219L361 534L46 849L237 1073L663 669V399ZM1273 399L847 -5L656 219L971 534L656 849L847 1073L1273 669V399Z" />
<glyph unicode="c;" glyph-name="onequarter" horiz-adv-x="1721" d="M111 818L110 1008H163V1375L67 1374V1525L454 1623L458 1008H514V818H111ZM348 0L839 1623H1203L701 0H348ZM1536 170H1608V1H1194V170H1268V247H955V405L1279 789L1537 788V397L1670
398V247H1536V170ZM1268 398V536L1157 399L1268 398Z" />
<glyph unicode="d;" glyph-name="onehalf" horiz-adv-x="1784" d="M107 818L106 1008H159V1375L63 1374V1525L450 1623L454 1008H510V818H107ZM352 0L843 1623H1207L705 0H352ZM1042 -1V181Q1158 227 1236 292Q1282 331 1305 355T1350 423T1371 516Q1368 562
1344 591T1289 620Q1250 620 1229 596T1207 534Q1207 492 1245 457L1108 352Q1016 434 1019 571Q1019 654 1072 717T1204 808T1365 834Q1501 829 1590 757T1679 558Q1679 465 1615 384Q1564 318 1399 194H1496Q1557 196 1591 214T1626 283H1730V-1H1042Z" />
<glyph unicode="e;" glyph-name="threequarters" horiz-adv-x="1827" d="M83 1081Q189 995 300 995Q351 995 391 1015T431 1081Q431 1133 387 1156T285 1179Q262 1179 238 1174T210 1168Q202 1168 199 1170Q198 1173 198 1173V1266L398 1436V1442H270Q248
1442 234 1438T212 1419T200 1395T189 1358L76 1359V1624H702V1470Q702 1468 535 1331Q620 1323 680 1258T741 1110Q741 972 639 897T361 822Q268 822 202 832T83 878V1081ZM502 0L993 1623H1357L855 0H502ZM1642 168H1714V-1H1300V168H1374V245H1061V403L1385
787L1643 786V395L1776 396V245H1642V168ZM1374 396V534L1263 397L1374 396Z" />
<glyph unicode="f;" glyph-name="questiondown" horiz-adv-x="1312" d="M962 1180H615V993Q554 972 508 954T400 906T293 846T200 773T122 684T73 576T53 447Q53 315 131 209T346 42T653 -18Q910 -18 1079 128T1263 500H791Q781 338 661 338Q631 338 610 353T581
393T569 435T565 470Q565 649 961 828L962 1180ZM782 1746Q901 1746 980 1679T1059 1496Q1059 1383 982 1317T782 1251Q655 1251 575 1317T495 1496Q495 1611 577 1678T782 1746Z" />
<glyph unicode="0;" glyph-name="Agrave" horiz-adv-x="1643" d="M1185 1623H191V1270H403L231 591Q204 486 193 462Q160 386 82 367Q48 359 4 359V0H682V359H598Q577 359 566 395T555 459Q556 480 557 491T565 512T585 523H860Q927 523 927 359H807L808 0H1634V359H1548Q1533
359 1522 371T1506 400T1492 447L1185 1623ZM612 773L724 1281L841 773H612ZM648 2270L1122 1833L1018 1692L464 2005L648 2270Z" />
<glyph unicode="1;" glyph-name="Aacute" horiz-adv-x="1643" d="M1492 447Q1500 416 1505 400T1522 372T1548 359H1634V0H808L807 359H927Q927 523 860 523H585Q572 523 565 513T557 491T555 459Q555 431 566 395T598 359H682V0H4V359Q48 359 82 367Q160
386 193 462Q204 486 231 591L403 1270H191V1623H1185L1492 447ZM841 773L724 1281L612 773H841ZM1122 2005L568 1692L464 1833L938 2270L1122 2005Z" />
<glyph unicode="2;" glyph-name="Acircumflex" horiz-adv-x="1643" d="M1492 447Q1500 416 1505 400T1522 372T1548 359H1634V0H808L807 359H927Q927 523 860 523H585Q572 523 565 513T557 491T555 459Q555 431 566 395T598 359H682V0H4V359Q48 359 82 367Q160
386 193 462Q204 486 231 591L403 1270H191V1623H1185L1492 447ZM841 773L724 1281L612 773H841ZM828 2162L1102 1786L948 1685L693 1930L438 1685L284 1786L557 2163L828 2162Z" />
<glyph unicode="3;" glyph-name="Atilde" horiz-adv-x="1643" d="M1185 1623H191V1270H403L231 591Q204 486 193 462Q160 386 82 367Q48 359 4 359V0H682V359H598Q577 359 566 395T555 459Q556 480 557 491T565 512T585 523H860Q927 523 927 359H807L808 0H1634V359H1548Q1533
359 1522 371T1506 400T1492 447L1185 1623ZM612 773L724 1281L841 773H612ZM967 2085Q1011 2085 1047 2066T1109 2013T1154 1944T1197 1865T1239 1794L1126 1720Q1053 1790 1026 1809T979 1828Q934 1828 872 1798T744 1738T622 1707Q577 1707 541 1725T479 1778T433
1846T390 1925T348 1997L462 2072Q538 1999 566 1980T612 1960Q648 1960 695 1979T781 2022T871 2065T967 2085Z" />
<glyph unicode="4;" glyph-name="Adieresis" horiz-adv-x="1643" d="M1185 1623H191V1270H403L231 591Q204 486 193 462Q160 386 82 367Q48 359 4 359V0H682V359H598Q577 359 566 395T555 459Q556 480 557 491T565 512T585 523H860Q927 523 927 359H807L808
0H1634V359H1548Q1533 359 1522 371T1506 400T1492 447L1185 1623ZM612 773L724 1281L841 773H612ZM711 1904Q711 1796 645 1735T487 1674Q394 1674 327 1735T259 1907Q259 2014 326 2074T485 2134T644 2074T711 1904ZM1328 1904Q1328 1796 1262 1735T1104 1674Q1011
1674 944 1735T876 1907Q876 2014 943 2074T1102 2134T1261 2074T1328 1904Z" />
<glyph unicode="5;" glyph-name="Aring" horiz-adv-x="1643" d="M1492 447Q1500 416 1505 400T1522 372T1548 359H1634V0H808L807 359H927Q927 523 860 523H585Q572 523 565 513T557 491T555 459Q555 431 566 395T598 359H682V0H4V359Q48 359 82 367Q160 386
193 462Q204 486 231 591L403 1270H191V1623H1185L1492 447ZM841 773L724 1281L612 773H841ZM789 1802Q866 1802 910 1846T954 1950Q954 2009 911 2052T789 2095Q713 2095 671 2052T628 1950Q628 1890 671 1846T789 1802ZM789 1700Q662 1700 590 1775T518 1951Q518
2050 589 2122T789 2195Q922 2195 995 2123T1069 1951Q1069 1850 995 1775T789 1700Z" />
<glyph unicode="6;" glyph-name="AE" horiz-adv-x="2138" d="M1747 969L1671 1271H1458V988H1663V636H1458V350H1677L1690 420L1753 687H2026V0H797L796 376H916Q948 540 880 540H605Q592 540 583 530T571 508T563 476Q557 459 561 418T587 376H671V0L-10
-1V354Q20 354 45 358T91 372T128 390T160 418T185 448T207 485T226 522T245 565T264 608L586 1274H374L445 1623H2015V970L1747 969ZM908 771L909 1292L669 771H908Z" />
<glyph unicode="7;" glyph-name="Ccedilla" horiz-adv-x="1542" d="M1458 202L1429 178Q1400 154 1342 120T1211 53T1035 -5T827 -29Q579 -29 405 76T145 366T59 804Q59 931 83 1050T160 1279T292 1472T486 1603T743 1652Q817 1652 870 1647T990 1619T1103
1552L1137 1623H1448L1449 991H1151Q1152 1044 1140 1094T1102 1190T1028 1262T917 1290Q870 1290 833 1275T771 1235T728 1173T701 1101T687 1017T681 935T680 855Q680 841 680 811Q677 766 680 714T687 609T708 509T751 424T823 365T930 343Q1011 343 1072 390T1149
518Q1153 538 1157 612H1458V202ZM709 0H889V-119Q1022 -196 1022 -285Q1022 -367 914 -426T653 -485H632V-372Q729 -371 774 -343T819 -271Q819 -231 787 -188T709 -119V0Z" />
<glyph unicode="8;" glyph-name="Egrave" horiz-adv-x="1490" d="M1367 969V1623H99V1270H257V359H99V0H1378V687H1105L1042 420L1029 359H810V636H1015V988H810V1270H1023L1099 968L1367 969ZM591 2270L1065 1833L961 1692L407 2005L591 2270Z" />
<glyph unicode="9;" glyph-name="Eacute" horiz-adv-x="1490" d="M1099 968L1023 1270H810V988H1015V636H810V359H1029L1042 420L1105 687H1378V0H99V359H257V1270H99V1623H1367V969L1099 968ZM1065 2005L511 1692L407 1833L881 2270L1065 2005Z" />
<glyph unicode="a;" glyph-name="Ecircumflex" horiz-adv-x="1490" d="M1099 968L1023 1270H810V988H1015V636H810V359H1029L1042 420L1105 687H1378V0H99V359H257V1270H99V1623H1367V969L1099 968ZM871 2162L1145 1786L991 1685L736 1930L481 1685L327 1786L600
2163L871 2162Z" />
<glyph unicode="b;" glyph-name="Edieresis" horiz-adv-x="1490" d="M1367 969V1623H99V1270H257V359H99V0H1378V687H1105L1042 420L1029 359H810V636H1015V988H810V1270H1023L1099 968L1367 969ZM654 1904Q654 1796 588 1735T430 1674Q337 1674 270 1735T202
1907Q202 2014 269 2074T428 2134T587 2074T654 1904ZM1271 1904Q1271 1796 1205 1735T1047 1674Q954 1674 887 1735T819 1907Q819 2014 886 2074T1045 2134T1204 2074T1271 1904Z" />
<glyph unicode="c;" glyph-name="Igrave" horiz-adv-x="1076" d="M972 1623H108V1270H251V359H104V0H966V359H825V1270H972V1623ZM395 2270L869 1833L765 1692L211 2005L395 2270Z" />
<glyph unicode="d;" glyph-name="Iacute" horiz-adv-x="1076" d="M972 1270H825V359H966V0H104V359H251V1270H108V1623H972V1270ZM869 2005L315 1692L211 1833L685 2270L869 2005Z" />
<glyph unicode="e;" glyph-name="Icircumflex" horiz-adv-x="1076" d="M972 1270H825V359H966V0H104V359H251V1270H108V1623H972V1270ZM675 2162L949 1786L795 1685L540 1930L285 1685L131 1786L404 2163L675 2162Z" />
<glyph unicode="f;" glyph-name="Idieresis" horiz-adv-x="1076" d="M972 1623H108V1270H251V359H104V0H966V359H825V1270H972V1623ZM458 1904Q458 1796 392 1735T234 1674Q141 1674 74 1735T6 1907Q6 2014 73 2074T232 2134T391 2074T458 1904ZM1075 1904Q1075
1796 1009 1735T851 1674Q758 1674 691 1735T623 1907Q623 2014 690 2074T849 2134T1008 2074T1075 1904Z" />
<glyph unicode="&#xd0;" glyph-name="Eth" horiz-adv-x="1802" d="M262 952V1271H93V1623H923Q1335 1623 1540 1418T1745 816Q1745 653 1690 507T1532 248T1266 67T901 0H99V351H262V653H132V952H262ZM844 351Q917 351 972 380T1061 455T1115 565T1143 689T1151
817Q1151 886 1145 943T1121 1064T1071 1170T985 1242T856 1271H809Q809 1237 809 1172T809 1054T809 952H895V653H810L813 351H844Z" />
<glyph unicode="&#xd1;" glyph-name="Ntilde" horiz-adv-x="1873" d="M1814 1622L1177 1623V1270Q1216 1271 1245 1266T1290 1248T1317 1222T1330 1187T1334 1152T1335 1116V647L839 1623H104V1272H261V550Q261 512 259 490T249 440T224 396T176 370T98 359V0H735V359Q650
359 614 392T577 507V908L1050 0H1656V1118Q1656 1192 1692 1231T1814 1270V1622ZM1082 2085Q1126 2085 1162 2066T1224 2013T1269 1944T1312 1865T1354 1794L1241 1720Q1168 1790 1141 1809T1094 1828Q1049 1828 987 1798T859 1738T737 1707Q692 1707 656 1725T594
1778T548 1846T505 1925T463 1997L577 2072Q653 1999 681 1980T727 1960Q763 1960 810 1979T896 2022T986 2065T1082 2085Z" />
<glyph unicode="&#xd2;" glyph-name="Ograve" horiz-adv-x="1744" d="M1692 808Q1692 573 1585 381T1289 80T872 -29T455 80T160 381T52 808Q52 1066 159 1259T451 1553T872 1653T1292 1553T1584 1260T1692 808ZM872 319Q911 319 942 332T994 368T1032 422T1057
489T1072 565T1079 643T1082 721T1082 793Q1082 813 1082 823Q1082 834 1082 858Q1081 894 1082 934T1079 1016T1068 1099T1045 1175T1008 1238T951 1280T872 1296Q833 1296 802 1284T749 1251T712 1201T687 1139T672 1069T664 996T662 924T662 858Q662 834 662
823Q662 813 662 793Q663 763 662 730T663 662T669 591T679 522T697 458T723 403T759 359T809 330T872 319ZM725 2270L1199 1833L1095 1692L541 2005L725 2270Z" />
<glyph unicode="&#xd3;" glyph-name="Oacute" horiz-adv-x="1744" d="M1692 808Q1692 573 1585 381T1289 80T872 -29T455 80T160 381T52 808Q52 1066 159 1259T451 1553T872 1653T1292 1553T1584 1260T1692 808ZM872 319Q911 319 942 332T994 368T1032 422T1057
489T1072 565T1079 643T1082 721T1082 793Q1082 813 1082 823Q1082 834 1082 858Q1081 894 1082 934T1079 1016T1068 1099T1045 1175T1008 1238T951 1280T872 1296Q833 1296 802 1284T749 1251T712 1201T687 1139T672 1069T664 996T662 924T662 858Q662 834 662
823Q662 813 662 793Q663 763 662 730T663 662T669 591T679 522T697 458T723 403T759 359T809 330T872 319ZM1199 2005L645 1692L541 1833L1015 2270L1199 2005Z" />
<glyph unicode="&#xd4;" glyph-name="Ocircumflex" horiz-adv-x="1744" d="M1692 808Q1692 573 1585 381T1289 80T872 -29T455 80T160 381T52 808Q52 1066 159 1259T451 1553T872 1653T1292 1553T1584 1260T1692 808ZM872 319Q911 319 942 332T994 368T1032 422T1057
489T1072 565T1079 643T1082 721T1082 793Q1082 813 1082 823Q1082 834 1082 858Q1081 894 1082 934T1079 1016T1068 1099T1045 1175T1008 1238T951 1280T872 1296Q833 1296 802 1284T749 1251T712 1201T687 1139T672 1069T664 996T662 924T662 858Q662 834 662
823Q662 813 662 793Q663 763 662 730T663 662T669 591T679 522T697 458T723 403T759 359T809 330T872 319ZM1005 2162L1279 1786L1125 1685L870 1930L615 1685L461 1786L734 2163L1005 2162Z" />
<glyph unicode="&#xd5;" glyph-name="Otilde" horiz-adv-x="1744" d="M1692 808Q1692 573 1585 381T1289 80T872 -29T455 80T160 381T52 808Q52 1066 159 1259T451 1553T872 1653T1292 1553T1584 1260T1692 808ZM872 319Q911 319 942 332T994 368T1032 422T1057
489T1072 565T1079 643T1082 721T1082 793Q1082 813 1082 823Q1082 834 1082 858Q1081 894 1082 934T1079 1016T1068 1099T1045 1175T1008 1238T951 1280T872 1296Q833 1296 802 1284T749 1251T712 1201T687 1139T672 1069T664 996T662 924T662 858Q662 834 662
823Q662 813 662 793Q663 763 662 730T663 662T669 591T679 522T697 458T723 403T759 359T809 330T872 319ZM1044 2085Q1088 2085 1124 2066T1186 2013T1231 1944T1274 1865T1316 1794L1203 1720Q1130 1790 1103 1809T1056 1828Q1011 1828 949 1798T821 1738T699
1707Q654 1707 618 1725T556 1778T510 1846T467 1925T425 1997L539 2072Q615 1999 643 1980T689 1960Q725 1960 772 1979T858 2022T948 2065T1044 2085Z" />
<glyph unicode="&#xd6;" glyph-name="Odieresis" horiz-adv-x="1744" d="M1692 808Q1692 573 1585 381T1289 80T872 -29T455 80T160 381T52 808Q52 1066 159 1259T451 1553T872 1653T1292 1553T1584 1260T1692 808ZM872 319Q911 319 942 332T994 368T1032 422T1057
489T1072 565T1079 643T1082 721T1082 793Q1082 813 1082 823Q1082 834 1082 858Q1081 894 1082 934T1079 1016T1068 1099T1045 1175T1008 1238T951 1280T872 1296Q833 1296 802 1284T749 1251T712 1201T687 1139T672 1069T664 996T662 924T662 858Q662 834 662
823Q662 813 662 793Q663 763 662 730T663 662T669 591T679 522T697 458T723 403T759 359T809 330T872 319ZM788 1904Q788 1796 722 1735T564 1674Q471 1674 404 1735T336 1907Q336 2014 403 2074T562 2134T721 2074T788 1904ZM1405 1904Q1405 1796 1339 1735T1181
1674Q1088 1674 1021 1735T953 1907Q953 2014 1020 2074T1179 2134T1338 2074T1405 1904Z" />
<glyph unicode="&#xd7;" glyph-name="multiply" horiz-adv-x="902" d="M451 467L259 274L86 447L278 640L74 844L254 1024L451 820L648 1024L828 844L624 640L816 447L643 274L451 467Z" />
<glyph unicode="&#xd8;" glyph-name="Oslash" horiz-adv-x="1742" d="M567 -155L605 12Q356 94 204 309T51 808Q51 1066 158 1259T450 1553T871 1653Q919 1653 982 1646L1019 1804L1172 1774L1136 1616Q1390 1541 1540 1330T1691 808Q1691 573 1584 381T1288 80T871
-29Q818 -29 767 -23L729 -194L567 -155ZM871 1296Q832 1296 801 1284T748 1251T711 1201T686 1139T671 1069T663 996T661 924T661 858Q661 834 661 823Q661 822 661 776T661 718T662 664T666 601T673 547T685 487T703 438L901 1294Q881 1296 871 1296ZM871 319Q910
319 941 332T993 368T1031 422T1056 489T1071 565T1078 643T1081 721T1081 793Q1081 813 1081 823Q1081 830 1081 867T1082 920T1080 971T1076 1029T1069 1082T1057 1137T1039 1185L845 320Q853 319 871 319Z" />
<glyph unicode="&#xd9;" glyph-name="Ugrave" horiz-adv-x="1683" d="M1485 1270H1639V1622H985V1270H1149V536Q1149 448 1097 397T953 346Q901 346 863 368T804 427T774 508T764 600V1270H912V1622H43V1270H204V704Q204 616 211 541T238 390T289 253T369 138T482
48T636 -8T834 -29Q1005 -29 1153 39T1393 234T1485 520V1270ZM696 2270L1170 1833L1066 1692L512 2005L696 2270Z" />
<glyph unicode="&#xda;" glyph-name="Uacute" horiz-adv-x="1683" d="M1485 520Q1485 362 1393 235T1153 39T834 -29Q725 -29 636 -9T483 48T369 138T289 253T239 390T212 541T204 704V1270H43V1622H912V1270H764V600Q764 551 773 508T803 428T862 368T953 346Q1045
346 1097 397T1149 536V1270H985V1622H1639V1270H1485V520ZM1170 2005L616 1692L512 1833L986 2270L1170 2005Z" />
<glyph unicode="&#xdb;" glyph-name="Ucircumflex" horiz-adv-x="1683" d="M1485 520Q1485 362 1393 235T1153 39T834 -29Q725 -29 636 -9T483 48T369 138T289 253T239 390T212 541T204 704V1270H43V1622H912V1270H764V600Q764 551 773 508T803 428T862 368T953
346Q1045 346 1097 397T1149 536V1270H985V1622H1639V1270H1485V520ZM976 2162L1250 1786L1096 1685L841 1930L586 1685L432 1786L705 2163L976 2162Z" />
<glyph unicode="&#xdc;" glyph-name="Udieresis" horiz-adv-x="1683" d="M1485 1270H1639V1622H985V1270H1149V536Q1149 448 1097 397T953 346Q901 346 863 368T804 427T774 508T764 600V1270H912V1622H43V1270H204V704Q204 616 211 541T238 390T289 253T369 138T482
48T636 -8T834 -29Q1005 -29 1153 39T1393 234T1485 520V1270ZM758 1904Q758 1796 692 1735T534 1674Q441 1674 374 1735T306 1907Q306 2014 373 2074T532 2134T691 2074T758 1904ZM1375 1904Q1375 1796 1309 1735T1151 1674Q1058 1674 991 1735T923 1907Q923 2014
990 2074T1149 2134T1308 2074T1375 1904Z" />
<glyph unicode="&#xdd;" glyph-name="Yacute" horiz-adv-x="1559" d="M1564 1270H1490Q1455 1270 1429 1262T1384 1244T1346 1206T1315 1160T1279 1095L1075 724V359H1232V0H363V359H518V672L97 1270H-15V1622H837V1270H746Q768 1240 838 1132T930 993Q1044 1166
1044 1221Q1044 1230 1043 1237T1037 1250T1030 1259T1019 1265T1006 1268T989 1270T971 1270T950 1270T927 1270V1622H1564V1270ZM1106 2005L552 1692L448 1833L922 2270L1106 2005Z" />
<glyph unicode="&#xde;" glyph-name="Thorn" horiz-adv-x="1638" d="M90 363H246V1488H95V1843H805L804 1543Q878 1543 936 1542T1065 1536T1190 1520T1304 1492T1407 1450T1492 1389T1558 1307T1599 1200T1615 1066Q1615 932 1568 834T1433 676T1226 588T955
559Q884 559 805 569V363H951V0H90V363ZM805 895H866Q976 895 1034 932T1093 1056Q1093 1132 1040 1170T909 1208H805V895Z" />
<glyph unicode="&#xdf;" glyph-name="germandbls" horiz-adv-x="1633" d="M803 1623Q932 1623 1038 1602T1217 1544T1339 1457T1410 1352T1433 1236Q1433 1140 1373 1049T1207 898Q1398 837 1503 707T1609 429Q1609 340 1570 261T1455 119T1257 19T981 -18L980
349Q1125 431 1125 533Q1125 625 1034 687T768 750L765 901Q853 901 916 973T980 1124Q980 1192 944 1233T834 1275Q773 1275 733 1241T693 1131L694 349Q820 349 845 350V0H-6V369H166V1092Q166 1212 195 1303T278 1454T413 1553T588 1607T803 1623Z" />
<glyph unicode="&#xe0;" glyph-name="agrave" horiz-adv-x="1294" d="M30 308Q30 159 143 71T419 -18Q501 -18 588 18T725 119L775 0H1247V305H1171V750Q1171 819 1146 874T1083 965T989 1025T884 1063T773 1083T677 1091T603 1092Q496 1092 375 1075T187 1040L120
1022V708H295Q367 803 510 803Q721 803 721 637V592Q611 630 465 630Q382 630 306 610T167 550T68 448T30 308ZM520 326Q520 369 551 403T625 438Q647 438 671 433T710 422L724 417V270Q720 265 712 258T676 237T616 224Q572 224 546 252T520 326ZM496 1708L970
1271L866 1130L312 1443L496 1708Z" />
<glyph unicode="&#xe1;" glyph-name="aacute" horiz-adv-x="1294" d="M30 308Q30 385 67 448T167 550T305 609T465 630Q611 630 721 592V637Q721 803 510 803Q367 803 295 708H120V1022L187 1040Q254 1057 375 1074T603 1092Q644 1092 677 1091T772 1083T883 1064T988
1026T1082 965T1145 875T1171 750V305H1247V0H775L725 119Q675 54 588 18T419 -18Q257 -18 144 70T30 308ZM520 326Q520 281 546 253T616 224Q648 224 676 237T712 257T724 270V417L710 422Q696 428 672 433T625 438Q582 438 551 404T520 326ZM1092 1443L538 1130L434
1271L908 1708L1092 1443Z" />
<glyph unicode="&#xe2;" glyph-name="acircumflex" horiz-adv-x="1294" d="M30 308Q30 385 67 448T167 550T305 609T465 630Q611 630 721 592V637Q721 803 510 803Q367 803 295 708H120V1022L187 1040Q254 1057 375 1074T603 1092Q644 1092 677 1091T772 1083T883
1064T988 1026T1082 965T1145 875T1171 750V305H1247V0H775L725 119Q675 54 588 18T419 -18Q257 -18 144 70T30 308ZM520 326Q520 281 546 253T616 224Q648 224 676 237T712 257T724 270V417L710 422Q696 428 672 433T625 438Q582 438 551 404T520 326ZM776 1600L1050
1224L896 1123L641 1368L386 1123L232 1224L505 1601L776 1600Z" />
<glyph unicode="&#xe3;" glyph-name="atilde" horiz-adv-x="1294" d="M30 308Q30 159 143 71T419 -18Q501 -18 588 18T725 119L775 0H1247V305H1171V750Q1171 819 1146 874T1083 965T989 1025T884 1063T773 1083T677 1091T603 1092Q496 1092 375 1075T187 1040L120
1022V708H295Q367 803 510 803Q721 803 721 637V592Q611 630 465 630Q382 630 306 610T167 550T68 448T30 308ZM520 326Q520 369 551 403T625 438Q647 438 671 433T710 422L724 417V270Q720 265 712 258T676 237T616 224Q572 224 546 252T520 326ZM789 1523Q833
1523 869 1504T931 1451T976 1382T1019 1303T1061 1232L948 1158Q875 1228 848 1247T801 1266Q756 1266 694 1236T566 1176T444 1145Q399 1145 363 1163T301 1216T255 1284T212 1363T170 1435L284 1510Q360 1437 388 1418T434 1398Q470 1398 517 1417T603 1460T693
1503T789 1523Z" />
<glyph unicode="&#xe4;" glyph-name="adieresis" horiz-adv-x="1294" d="M30 308Q30 159 143 71T419 -18Q501 -18 588 18T725 119L775 0H1247V305H1171V750Q1171 819 1146 874T1083 965T989 1025T884 1063T773 1083T677 1091T603 1092Q496 1092 375 1075T187 1040L120
1022V708H295Q367 803 510 803Q721 803 721 637V592Q611 630 465 630Q382 630 306 610T167 550T68 448T30 308ZM520 326Q520 369 551 403T625 438Q647 438 671 433T710 422L724 417V270Q720 265 712 258T676 237T616 224Q572 224 546 252T520 326ZM559 1342Q559
1234 493 1173T335 1112Q242 1112 175 1173T107 1345Q107 1452 174 1512T333 1572T492 1512T559 1342ZM1176 1342Q1176 1234 1110 1173T952 1112Q859 1112 792 1173T724 1345Q724 1452 791 1512T950 1572T1109 1512T1176 1342Z" />
<glyph unicode="&#xe5;" glyph-name="aring" horiz-adv-x="1294" d="M30 308Q30 385 67 448T167 550T305 609T465 630Q611 630 721 592V637Q721 803 510 803Q367 803 295 708H120V1022L187 1040Q254 1057 375 1074T603 1092Q644 1092 677 1091T772 1083T883 1064T988
1026T1082 965T1145 875T1171 750V305H1247V0H775L725 119Q675 54 588 18T419 -18Q257 -18 144 70T30 308ZM520 326Q520 281 546 253T616 224Q648 224 676 237T712 257T724 270V417L710 422Q696 428 672 433T625 438Q582 438 551 404T520 326ZM637 1240Q714 1240
758 1284T802 1388Q802 1447 759 1490T637 1533Q561 1533 519 1490T476 1388Q476 1328 519 1284T637 1240ZM637 1138Q510 1138 438 1213T366 1389Q366 1488 437 1560T637 1633Q770 1633 843 1561T917 1389Q917 1288 843 1213T637 1138Z" />
<glyph unicode="&#xe6;" glyph-name="ae" horiz-adv-x="1911" d="M30 299Q30 376 67 439T167 541T305 600T465 621Q611 621 721 583V628Q721 794 510 794Q367 794 295 699H120V1013L187 1030Q254 1048 375 1065T603 1083Q671 1083 735 1070T838 1041T911 1003T956
974T971 961L985 974Q998 987 1028 1005T1096 1041T1193 1072T1315 1085Q1487 1085 1614 1012T1803 818T1866 548Q1866 514 1861 469Q1852 448 1848 445T1824 441H1222Q1222 348 1269 282T1399 215Q1471 215 1504 250T1539 358H1846V120Q1714 41 1587 8T1299 -25Q1110
-25 967 105Q864 29 740 0T419 -27Q314 -26 227 11T85 124T30 299ZM520 317Q520 272 546 244T616 215Q648 215 676 228T712 248T724 261V408L710 413Q696 418 672 423T625 429Q582 429 551 395T520 317ZM1224 620H1439Q1440 655 1438 681T1426 739T1393 789T1332
807Q1278 807 1251 759T1224 649V620Z" />
<glyph unicode="&#xe7;" glyph-name="ccedilla" horiz-adv-x="1112" d="M44 546Q44 655 80 754T182 928T347 1047T563 1092Q700 1092 821 995L862 1072H1037V628H795Q795 694 759 736T672 778Q609 778 563 713T517 513Q517 473 524 437T549 368T597 315T672 295Q704
295 728 309T765 340T786 379T796 411T799 425H1039V124Q970 55 846 19T596 -18Q438 -18 315 45T118 238T44 546ZM475 0H655V-119Q788 -196 788 -285Q788 -367 680 -426T419 -485H398V-372Q495 -371 540 -343T585 -271Q585 -231 553 -188T475 -119V0Z" />
<glyph unicode="&#xe8;" glyph-name="egrave" horiz-adv-x="1224" d="M611 -18Q771 -18 898 15T1158 127V365H851Q849 292 816 257T711 222Q629 222 582 288T534 448H1136Q1155 448 1159 451T1173 476Q1178 521 1178 555Q1178 705 1116 825T926 1018T627 1092Q447
1092 313 1018T109 815T40 521Q40 374 113 251T317 55T611 -18ZM536 656Q536 717 563 765T644 814Q681 814 705 797T738 747T749 688T751 627H536V656ZM460 1708L934 1271L830 1130L276 1443L460 1708Z" />
<glyph unicode="&#xe9;" glyph-name="eacute" horiz-adv-x="1224" d="M611 -18Q449 -18 318 55T113 251T40 521Q40 686 109 814T312 1017T627 1092Q799 1092 926 1019T1115 825T1178 555Q1178 521 1173 476Q1164 455 1160 452T1136 448H534Q534 355 581 289T711
222Q783 222 816 257T851 365H1158V127Q1026 48 899 15T611 -18ZM536 627H751Q752 662 750 688T738 746T705 796T644 814Q590 814 563 766T536 656V627ZM934 1443L380 1130L276 1271L750 1708L934 1443Z" />
<glyph unicode="&#xea;" glyph-name="ecircumflex" horiz-adv-x="1224" d="M611 -18Q449 -18 318 55T113 251T40 521Q40 686 109 814T312 1017T627 1092Q799 1092 926 1019T1115 825T1178 555Q1178 521 1173 476Q1164 455 1160 452T1136 448H534Q534 355 581 289T711
222Q783 222 816 257T851 365H1158V127Q1026 48 899 15T611 -18ZM536 627H751Q752 662 750 688T738 746T705 796T644 814Q590 814 563 766T536 656V627ZM740 1600L1014 1224L860 1123L605 1368L350 1123L196 1224L469 1601L740 1600Z" />
<glyph unicode="&#xeb;" glyph-name="edieresis" horiz-adv-x="1224" d="M611 -18Q771 -18 898 15T1158 127V365H851Q849 292 816 257T711 222Q629 222 582 288T534 448H1136Q1155 448 1159 451T1173 476Q1178 521 1178 555Q1178 705 1116 825T926 1018T627 1092Q447
1092 313 1018T109 815T40 521Q40 374 113 251T317 55T611 -18ZM536 656Q536 717 563 765T644 814Q681 814 705 797T738 747T749 688T751 627H536V656ZM523 1342Q523 1234 457 1173T299 1112Q206 1112 139 1173T71 1345Q71 1452 138 1512T297 1572T456 1512T523
1342ZM1140 1342Q1140 1234 1074 1173T916 1112Q823 1112 756 1173T688 1345Q688 1452 755 1512T914 1572T1073 1512T1140 1342Z" />
<glyph unicode="&#xec;" glyph-name="igrave" horiz-adv-x="814" d="M270 1708L744 1271L640 1130L86 1443L270 1708ZM661 1072H91V747H180V299H98V0H745V299H661V1072Z" />
<glyph unicode="&#xed;" glyph-name="iacute" horiz-adv-x="814" d="M744 1443L190 1130L86 1271L560 1708L744 1443ZM661 299H745V0H98V299H180V747H91V1072H661V299Z" />
<glyph unicode="&#xee;" glyph-name="icircumflex" horiz-adv-x="813" d="M550 1600L824 1224L670 1123L415 1368L160 1123L6 1224L279 1601L550 1600ZM661 299H745V0H98V299H180V747H91V1072H661V299Z" />
<glyph unicode="&#xef;" glyph-name="idieresis" horiz-adv-x="815" d="M334 1342Q334 1234 268 1173T110 1112Q17 1112 -50 1173T-118 1345Q-118 1452 -51 1512T108 1572T267 1512T334 1342ZM951 1342Q951 1234 885 1173T727 1112Q634 1112 567 1173T499 1345Q499
1452 566 1512T725 1572T884 1512T951 1342ZM662 1072H92V747H181V299H99V0H746V299H662V1072Z" />
<glyph unicode="&#xf0;" glyph-name="eth" horiz-adv-x="1337" d="M1206 1585L1269 1428L1112 1365Q1264 1142 1283 751Q1284 731 1284 691Q1284 574 1262 471T1190 277T1067 122T887 20T646 -18Q504 -18 386 30T194 159T79 337T38 540Q38 616 60 687T131 820T248
929T418 1002T637 1029H670Q646 1121 622 1169L371 1068L308 1225L488 1297Q426 1321 342 1321Q264 1321 217 1310V1621Q372 1654 511 1654Q807 1654 992 1499L1206 1585ZM557 568Q557 338 668 338Q698 338 719 364T748 430T760 502T764 560Q764 777 666 777Q557
777 557 568Z" />
<glyph unicode="&#xf1;" glyph-name="ntilde" horiz-adv-x="1482" d="M661 1072H98V761H174V305H91V0H749V305H661V624Q661 671 689 704T765 737Q801 737 828 706T855 627V0H1429V305H1349V680Q1349 1092 1019 1092Q901 1092 809 1047T661 916V1072ZM889 1523Q933
1523 969 1504T1031 1451T1076 1382T1119 1303T1161 1232L1048 1158Q975 1228 948 1247T901 1266Q856 1266 794 1236T666 1176T544 1145Q499 1145 463 1163T401 1216T355 1284T312 1363T270 1435L384 1510Q460 1437 488 1418T534 1398Q570 1398 617 1417T703 1460T793
1503T889 1523Z" />
<glyph unicode="&#xf2;" glyph-name="ograve" horiz-adv-x="1290" d="M43 547Q43 807 204 949T645 1091T1086 949T1247 547Q1247 372 1171 243T959 48T645 -18T332 48T120 243T43 547ZM508 545Q508 294 645 294T782 545Q782 596 778 631T760 704T718 760T645 779T572
760T530 704T513 632T508 545ZM495 1708L969 1271L865 1130L311 1443L495 1708Z" />
<glyph unicode="&#xf3;" glyph-name="oacute" horiz-adv-x="1290" d="M43 547Q43 807 204 949T645 1091T1086 949T1247 547Q1247 372 1171 243T959 48T645 -18T332 48T120 243T43 547ZM508 545Q508 294 645 294T782 545Q782 596 778 631T760 704T718 760T645 779T572
760T530 704T513 632T508 545ZM969 1443L415 1130L311 1271L785 1708L969 1443Z" />
<glyph unicode="&#xf4;" glyph-name="ocircumflex" horiz-adv-x="1290" d="M43 547Q43 807 204 949T645 1091T1086 949T1247 547Q1247 372 1171 243T959 48T645 -18T332 48T120 243T43 547ZM508 545Q508 294 645 294T782 545Q782 596 778 631T760 704T718 760T645
779T572 760T530 704T513 632T508 545ZM775 1600L1049 1224L895 1123L640 1368L385 1123L231 1224L504 1601L775 1600Z" />
<glyph unicode="&#xf5;" glyph-name="otilde" horiz-adv-x="1290" d="M43 547Q43 807 204 949T645 1091T1086 949T1247 547Q1247 372 1171 243T959 48T645 -18T332 48T120 243T43 547ZM508 545Q508 294 645 294T782 545Q782 596 778 631T760 704T718 760T645 779T572
760T530 704T513 632T508 545ZM813 1523Q857 1523 893 1504T955 1451T1000 1382T1043 1303T1085 1232L972 1158Q899 1228 872 1247T825 1266Q780 1266 718 1236T590 1176T468 1145Q423 1145 387 1163T325 1216T279 1284T236 1363T194 1435L308 1510Q384 1437 412
1418T458 1398Q494 1398 541 1417T627 1460T717 1503T813 1523Z" />
<glyph unicode="&#xf6;" glyph-name="odieresis" horiz-adv-x="1290" d="M43 547Q43 807 204 949T645 1091T1086 949T1247 547Q1247 372 1171 243T959 48T645 -18T332 48T120 243T43 547ZM508 545Q508 294 645 294T782 545Q782 596 778 631T760 704T718 760T645
779T572 760T530 704T513 632T508 545ZM558 1342Q558 1234 492 1173T334 1112Q241 1112 174 1173T106 1345Q106 1452 173 1512T332 1572T491 1512T558 1342ZM1175 1342Q1175 1234 1109 1173T951 1112Q858 1112 791 1173T723 1345Q723 1452 790 1512T949 1572T1108
1512T1175 1342Z" />
<glyph unicode="&#xf7;" glyph-name="divide" horiz-adv-x="920" d="M68 761V538H842V761H68ZM471 -18Q373 -18 308 37T243 188Q243 280 306 334T471 389Q575 389 641 335T707 188Q707 93 639 38T471 -18ZM471 886Q373 886 308 941T243 1092Q243 1184 306 1238T471
1293Q575 1293 641 1239T707 1092Q707 997 639 942T471 886Z" />
<glyph unicode="&#xf8;" glyph-name="oslash" horiz-adv-x="1288" d="M43 547Q43 807 204 949T645 1091T1086 949T1247 547Q1247 372 1171 243T959 48T645 -18T332 48T120 243T43 547ZM508 545Q508 294 645 294T782 545Q782 596 778 631T760 704T718 760T645 779T572
760T530 704T513 632T508 545ZM246 -54L947 1192L1034 1142L333 -104L246 -54Z" />
<glyph unicode="&#xf9;" glyph-name="ugrave" horiz-adv-x="1466" d="M822 0H1392V305H1316V1072H741V761H822V438Q822 387 794 353T718 318Q682 318 655 351T628 438V1072H54V761H134V385Q134 -18 464 -18Q582 -18 674 26T822 156V0ZM584 1708L1058 1271L954
1130L400 1443L584 1708Z" />
<glyph unicode="&#xfa;" glyph-name="uacute" horiz-adv-x="1466" d="M822 156Q767 71 675 27T464 -18Q134 -18 134 385V761H54V1072H628V438Q628 385 655 352T718 318Q765 318 793 352T822 438V761H741V1072H1316V305H1392V0H822V156ZM1058 1443L504 1130L400
1271L874 1708L1058 1443Z" />
<glyph unicode="&#xfb;" glyph-name="ucircumflex" horiz-adv-x="1466" d="M822 156Q767 71 675 27T464 -18Q134 -18 134 385V761H54V1072H628V438Q628 385 655 352T718 318Q765 318 793 352T822 438V761H741V1072H1316V305H1392V0H822V156ZM864 1600L1138 1224L984
1123L729 1368L474 1123L320 1224L593 1601L864 1600Z" />
<glyph unicode="&#xfc;" glyph-name="udieresis" horiz-adv-x="1466" d="M822 0H1392V305H1316V1072H741V761H822V438Q822 387 794 353T718 318Q682 318 655 351T628 438V1072H54V761H134V385Q134 -18 464 -18Q582 -18 674 26T822 156V0ZM647 1342Q647 1234 581
1173T423 1112Q330 1112 263 1173T195 1345Q195 1452 262 1512T421 1572T580 1512T647 1342ZM1264 1342Q1264 1234 1198 1173T1040 1112Q947 1112 880 1173T812 1345Q812 1452 879 1512T1038 1572T1197 1512T1264 1342Z" />
<glyph unicode="&#xfd;" glyph-name="yacute" horiz-adv-x="1377" d="M557 31L91 761H3V1072H683V761H615L791 454L888 662Q920 731 883 751Q863 761 793 761V1072H1373V761Q1334 761 1307 753T1259 723T1228 685T1197 628L819 -82H1051V-377H360L557 31ZM1016
1443L462 1130L358 1271L832 1708L1016 1443Z" />
<glyph unicode="&#xfe;" glyph-name="thorn" horiz-adv-x="1405" d="M33 -398V-94H117V1141H43V1447H607V956H617Q681 1023 749 1053T909 1083Q1015 1083 1102 1038T1244 917T1330 745T1360 541Q1360 436 1331 339T1248 164T1105 38T907 -9Q804 -9 722 28T596
119V-96H707V-397L33 -398ZM598 406Q600 395 608 380T630 348T668 321T725 310Q773 310 807 331T858 388T883 462T891 545Q891 739 728 739Q697 739 673 729T635 707T611 678T599 655T596 645V417L598 406Z" />
<glyph unicode="&#xff;" glyph-name="ydieresis" horiz-adv-x="1377" d="M360 -377H1051V-82H819L1197 628Q1218 668 1228 684T1259 723T1307 753T1373 761V1072H793V761Q863 761 883 751Q920 731 888 662L791 454L615 761H683V1072H3V761H91L557 31L360 -377ZM605
1342Q605 1234 539 1173T381 1112Q288 1112 221 1173T153 1345Q153 1452 220 1512T379 1572T538 1512T605 1342ZM1222 1342Q1222 1234 1156 1173T998 1112Q905 1112 838 1173T770 1345Q770 1452 837 1512T996 1572T1155 1512T1222 1342Z" />
</font>
</defs>
</svg>
